<mxfile host="drawio-plugin" modified="2023-09-13T15:10:42.238Z" agent="5.0 (Windows NT 10.0; Win64; x64) AppleWebKit/537.36 (KHTML, like Gecko) Chrome/111.0.0.0 Safari/537.36" etag="FYVcKXLjqktrOceCTLA5" version="20.5.3" type="embed"><diagram name="Page-1" id="403LzTOaVPb2q7DrbYgl"><mxGraphModel dx="2383" dy="1429" grid="1" gridSize="10" guides="1" tooltips="1" connect="1" arrows="1" fold="1" page="1" pageScale="1" pageWidth="850" pageHeight="1100" math="0" shadow="0"><root><mxCell id="0"/><mxCell id="1" parent="0"/><mxCell id="9x5C1BJT1zNgy5i5THih-2" value="Paris Bibliotheque" style="shape=rect;html=1;verticalAlign=top;fontStyle=1;whiteSpace=wrap;align=center;" parent="1" vertex="1"><mxGeometry x="-1370" y="-690" width="440" height="630" as="geometry"/></mxCell><mxCell id="9x5C1BJT1zNgy5i5THih-19" value="Use case diagram" style="text;html=1;align=center;verticalAlign=middle;resizable=0;points=[];autosize=1;strokeColor=none;fillColor=none;fontStyle=5;fontSize=50;" parent="1" vertex="1"><mxGeometry x="-1377" y="-820" width="450" height="70" as="geometry"/></mxCell><mxCell id="9x5C1BJT1zNgy5i5THih-29" value="Admin" style="shape=umlActor;html=1;verticalLabelPosition=bottom;verticalAlign=top;align=center;fontStyle=4" parent="1" vertex="1"><mxGeometry x="-1450" y="-448" width="30" height="60" as="geometry"/></mxCell><mxCell id="9x5C1BJT1zNgy5i5THih-46" value="crud Books" style="ellipse;whiteSpace=wrap;html=1;" parent="1" vertex="1"><mxGeometry x="-1250" y="-510" width="120" height="80" as="geometry"/></mxCell><mxCell id="9x5C1BJT1zNgy5i5THih-57" value="search Book" style="ellipse;whiteSpace=wrap;html=1;" parent="1" vertex="1"><mxGeometry x="-1250" y="-400" width="120" height="80" as="geometry"/></mxCell><mxCell id="RualgDtZSwJnKQ7Aqck3-1" value="borrow Book" style="ellipse;whiteSpace=wrap;html=1;" parent="1" vertex="1"><mxGeometry x="-1250" y="-280" width="120" height="80" as="geometry"/></mxCell><mxCell id="RualgDtZSwJnKQ7Aqck3-3" style="edgeStyle=orthogonalEdgeStyle;rounded=0;orthogonalLoop=1;jettySize=auto;html=1;exitX=0.5;exitY=0.5;exitDx=0;exitDy=0;exitPerimeter=0;entryX=0;entryY=0.5;entryDx=0;entryDy=0;" parent="1" source="9x5C1BJT1zNgy5i5THih-29" target="9x5C1BJT1zNgy5i5THih-46" edge="1"><mxGeometry relative="1" as="geometry"><Array as="points"/><mxPoint x="-1425" y="-408" as="sourcePoint"/><mxPoint x="-1240" y="-350" as="targetPoint"/></mxGeometry></mxCell><mxCell id="RualgDtZSwJnKQ7Aqck3-4" style="edgeStyle=orthogonalEdgeStyle;rounded=0;orthogonalLoop=1;jettySize=auto;html=1;exitX=0.5;exitY=0.5;exitDx=0;exitDy=0;exitPerimeter=0;entryX=0;entryY=0.5;entryDx=0;entryDy=0;" parent="1" source="9x5C1BJT1zNgy5i5THih-29" target="RualgDtZSwJnKQ7Aqck3-1" edge="1"><mxGeometry relative="1" as="geometry"><Array as="points"/><mxPoint x="-1435" y="-280.0000000000002" as="sourcePoint"/><mxPoint x="-1240" y="-350" as="targetPoint"/></mxGeometry></mxCell><mxCell id="RualgDtZSwJnKQ7Aqck3-5" value="return Book" style="ellipse;whiteSpace=wrap;html=1;" parent="1" vertex="1"><mxGeometry x="-1250" y="-170" width="120" height="80" as="geometry"/></mxCell><mxCell id="RualgDtZSwJnKQ7Aqck3-6" style="edgeStyle=orthogonalEdgeStyle;rounded=0;orthogonalLoop=1;jettySize=auto;html=1;exitX=0.5;exitY=0.5;exitDx=0;exitDy=0;exitPerimeter=0;entryX=0;entryY=0.5;entryDx=0;entryDy=0;" parent="1" source="9x5C1BJT1zNgy5i5THih-29" target="9x5C1BJT1zNgy5i5THih-57" edge="1"><mxGeometry relative="1" as="geometry"><Array as="points"><mxPoint x="-1335" y="-418"/><mxPoint x="-1335" y="-360"/></Array><mxPoint x="-1425" y="-270" as="sourcePoint"/><mxPoint x="-1240" y="-350" as="targetPoint"/></mxGeometry></mxCell><mxCell id="RualgDtZSwJnKQ7Aqck3-7" style="edgeStyle=orthogonalEdgeStyle;rounded=0;orthogonalLoop=1;jettySize=auto;html=1;exitX=0.5;exitY=0.5;exitDx=0;exitDy=0;exitPerimeter=0;entryX=0;entryY=0.5;entryDx=0;entryDy=0;" parent="1" source="9x5C1BJT1zNgy5i5THih-29" target="RualgDtZSwJnKQ7Aqck3-5" edge="1"><mxGeometry relative="1" as="geometry"><Array as="points"/><mxPoint x="-1435" y="-280.0000000000002" as="sourcePoint"/><mxPoint x="-1240" y="-230" as="targetPoint"/></mxGeometry></mxCell><mxCell id="RualgDtZSwJnKQ7Aqck3-8" value="Générer des rapports statistiques" style="ellipse;whiteSpace=wrap;html=1;" parent="1" vertex="1"><mxGeometry x="-1250" y="-620" width="120" height="80" as="geometry"/></mxCell><mxCell id="RualgDtZSwJnKQ7Aqck3-9" style="edgeStyle=orthogonalEdgeStyle;rounded=0;orthogonalLoop=1;jettySize=auto;html=1;exitX=0.5;exitY=0.5;exitDx=0;exitDy=0;exitPerimeter=0;entryX=0;entryY=0.5;entryDx=0;entryDy=0;" parent="1" source="9x5C1BJT1zNgy5i5THih-29" target="RualgDtZSwJnKQ7Aqck3-8" edge="1"><mxGeometry relative="1" as="geometry"><Array as="points"/><mxPoint x="-1425" y="-408" as="sourcePoint"/><mxPoint x="-1240" y="-460" as="targetPoint"/></mxGeometry></mxCell></root></mxGraphModel></diagram></mxfile>